<?xml version="1.0" encoding="UTF-8"?>
<svg version="1.1" xmlns="http://www.w3.org/2000/svg" width="512" height="512">
<path d="M0 0 C1.17385254 -0.02143066 2.34770508 -0.04286133 3.55712891 -0.06494141 C11.44299907 -0.09544986 16.42298713 0.58102389 22.875 5.3125 C25.92567161 9.40911616 26.87656975 13.16790644 27.0625 18.25 C26.35186588 22.90142333 24.59575235 25.66596171 21.4375 29.125 C14.41173251 33.54863138 7.65128759 33.38130796 -0.51147461 33.2890625 C-44.8260528 32.79855178 -83.99745337 49.00033203 -116.9375 78.25 C-117.59105469 78.83007812 -118.24460937 79.41015625 -118.91796875 80.0078125 C-144.78672279 104.46330919 -162.57306297 143.54957965 -164.09863281 178.99365234 C-164.66788979 203.32179084 -164.66788979 203.32179084 -160.9375 227.25 C-160.63150879 228.44206055 -160.63150879 228.44206055 -160.31933594 229.65820312 C-157.24437725 241.32245688 -153.21878701 252.40838133 -147.9375 263.25 C-147.39351562 264.36761719 -146.84953125 265.48523438 -146.2890625 266.63671875 C-127.88951057 302.44241956 -94.96668833 330.0685714 -56.83056641 342.71923828 C-52.88731403 343.97301847 -48.92122273 345.13226484 -44.9375 346.25 C-43.8134375 346.5696875 -42.689375 346.889375 -41.53125 347.21875 C-6.76652461 355.82388005 31.06325414 350.76478587 63.0625 335.25 C63.73458496 334.92773438 64.40666992 334.60546875 65.09912109 334.2734375 C102.1464003 316.2489516 130.23466233 283.61936499 143.89501953 244.88964844 C145.85281942 239.07053586 147.54396857 233.19818119 149.0625 227.25 C149.33368652 226.18869873 149.33368652 226.18869873 149.61035156 225.10595703 C152.12310501 214.67278492 152.34096299 204.18650897 152.375 193.5 C152.38063965 192.20924561 152.3862793 190.91849121 152.39208984 189.58862305 C152.33489972 181.99929971 151.7294129 174.69801533 150.52563477 167.20361328 C149.38959685 159.95860186 149.71657151 154.37504296 154.0625 148.25 C158.14796053 144.45635808 162.09825317 143.42959091 167.53125 143.0859375 C172.86353167 143.43154835 176.57805701 145.67260846 180.18359375 149.50390625 C182.27935072 152.56693567 182.99981975 154.94168783 183.75 158.5625 C183.98074219 159.63113281 184.21148437 160.69976562 184.44921875 161.80078125 C185.64531124 168.52784919 186.22557109 175.04075818 186.265625 181.859375 C186.27263931 182.6599231 186.27965363 183.46047119 186.28688049 184.28527832 C186.30430225 186.85690996 186.31073332 189.4283115 186.3125 192 C186.31317474 192.87748901 186.31384949 193.75497803 186.31454468 194.65905762 C186.29893185 207.41605474 185.96569185 219.77335599 183.0625 232.25 C182.89089355 233.02037598 182.71928711 233.79075195 182.54248047 234.58447266 C176.7504459 260.06631912 166.4081216 284.06511006 151.0625 305.25 C150.29550781 306.3225 149.52851563 307.395 148.73828125 308.5 C139.08164771 321.52448425 127.98786118 333.43561401 115.0625 343.25 C114.05960937 344.05695313 113.05671875 344.86390625 112.0234375 345.6953125 C72.35809652 377.47882934 21.02381122 389.3682291 -29.02734375 384.7890625 C-77.34309034 379.11199599 -124.75222092 353.79063139 -155.2734375 315.67578125 C-156.16394226 314.53579014 -157.05190681 313.39381081 -157.9375 312.25 C-158.63407715 311.36513916 -158.63407715 311.36513916 -159.34472656 310.46240234 C-191.53705679 269.07381822 -203.30240444 216.68464555 -196.9375 165.25 C-195.95469109 158.49990032 -194.57315876 151.86997793 -192.9375 145.25 C-192.76379883 144.53618164 -192.59009766 143.82236328 -192.41113281 143.08691406 C-180.81289061 96.75826084 -149.70968523 55.51795798 -109.5625 30.0625 C-107.36673455 28.770073 -105.15717938 27.50091043 -102.9375 26.25 C-102.26058105 25.86247559 -101.58366211 25.47495117 -100.88623047 25.07568359 C-78.416709 12.30924965 -53.66055614 4.14932219 -27.9375 1.25 C-26.96425781 1.13914062 -25.99101562 1.02828125 -24.98828125 0.9140625 C-16.67874584 0.15772102 -8.33891366 0.08551023 0 0 Z " fill="#000000" transform="translate(261.9375,63.75)"/>
<path d="M0 0 C4.65745427 2.16238948 7.97224699 5.24338441 10 10 C10.61975883 13.95461675 10.69584356 17.87727034 10.75 21.875 C10.77964844 22.94492188 10.80929687 24.01484375 10.83984375 25.1171875 C10.910228 27.74486608 10.96307994 30.37167364 11 33 C12.02738281 33.21914062 13.05476563 33.43828125 14.11328125 33.6640625 C29.07748399 37.01520341 41.41191641 42.90831246 50.91796875 55.55078125 C52.44926077 57.98194365 53.76779148 60.40565621 55 63 C55.50660156 64.05767578 55.50660156 64.05767578 56.0234375 65.13671875 C58.71196074 71.80869616 58.77331562 78.9185143 58 86 C55.79186259 90.925845 52.89594362 93.72688332 48 96 C42.4002288 96.75381535 37.66500009 96.77303575 32.5 94.375 C27.56411342 89.68590775 25.78185012 85.6034258 24.46484375 79.10546875 C23.60886856 75.22840468 22.41921109 73.06518469 19.21484375 70.66015625 C7.03413767 63.45201972 -9.61138029 63.89010251 -23 67 C-28.45303483 68.94995599 -32.9094495 70.93149718 -36 76 C-36.60959082 80.80052769 -36.85928771 82.8184794 -34 86.75 C-24.51391649 93.86456263 -14.48960143 94.68912234 -2.96875 95.19921875 C16.27114651 96.05137952 33.27441054 100.63715103 47 115 C56.54156279 125.73425813 58.78694559 136.92455578 58.17480469 150.91894531 C57.30161334 161.31431266 50.77990432 170.62810056 43.4375 177.6875 C34.43747559 185.06542699 21.71658554 191 10 191 C10.0314209 191.99797607 10.0314209 191.99797607 10.06347656 193.01611328 C10.14700609 196.05225302 10.19877603 199.08815043 10.25 202.125 C10.28351563 203.17171875 10.31703125 204.2184375 10.3515625 205.296875 C10.4308835 211.56323361 10.2241437 215.25169249 6 220 C2.18069828 223.62833663 -0.88279006 224.31000458 -6 224.5 C-11.11720994 224.31000458 -14.18069828 223.62833663 -18 220 C-22.93059477 214.4575796 -22.4798158 209.30232434 -22.25 202.125 C-22.23195312 201.05507813 -22.21390625 199.98515625 -22.1953125 198.8828125 C-22.14837439 196.25427822 -22.08272933 193.62761087 -22 191 C-22.57500244 190.95246582 -23.15000488 190.90493164 -23.74243164 190.85595703 C-35.29848443 189.76108482 -45.0337235 185.33324333 -54 178 C-54.70898438 177.42765625 -55.41796875 176.8553125 -56.1484375 176.265625 C-63.71681222 169.48018559 -69.48943486 158.94703383 -70.23828125 148.7578125 C-70.43809825 138.9772961 -70.43809825 138.9772961 -68.375 134.375 C-63.71508799 129.71508799 -60.66406003 127.74742797 -54 127.5 C-48.88279006 127.68999542 -45.81930172 128.37166337 -42 132 C-39.151359 135.40254341 -37.86990454 138.14334442 -37.125 142.4375 C-36.09194389 147.55112773 -34.21271282 150.85069041 -30 154 C-17.48835958 160.17140885 -3.36304913 159.85921096 10 157 C13.1565085 155.89869072 16.04094713 154.53950724 19 153 C19.99 152.67 20.98 152.34 22 152 C23.77559146 148.98149451 24.00032634 147.01827529 23.9375 143.5 C22.62560862 138.60227219 20.46013328 136.53358958 16.1953125 133.875 C7.7956467 129.56422812 -1.85170224 129.29845949 -11.109375 128.61328125 C-30.07402546 127.15885201 -46.25448399 122.92922533 -59.921875 108.671875 C-68.52749156 97.60751085 -71.24082502 85.76064802 -70 72 C-67.3853196 59.83800089 -59.85892307 50.29107941 -50 43 C-41.42398903 37.76305129 -32.87455799 34.72230663 -23 33 C-22.9906543 32.33468262 -22.98130859 31.66936523 -22.97167969 30.98388672 C-22.91773981 27.94685981 -22.83413938 24.91133421 -22.75 21.875 C-22.73582031 20.82828125 -22.72164062 19.7815625 -22.70703125 18.703125 C-22.45677828 10.79513107 -21.29436464 7.12964641 -15.5 1.625 C-10.33499991 -0.77303575 -5.5997712 -0.75381535 0 0 Z " fill="#000000" transform="translate(262,144)"/>
<path d="M0 0 C3.82793542 4.28364202 5.66068887 8.43404233 5.6015625 14.23828125 C3.92736006 25.00898359 -6.98051627 32.67974968 -14.33984375 40 C-15.38381066 41.0420974 -16.42755372 42.08441909 -17.47108459 43.12695312 C-20.19285922 45.84494446 -22.91762523 48.5599169 -25.64306641 51.27423096 C-28.43381073 54.05467018 -31.22165871 56.83801029 -34.00976562 59.62109375 C-39.46204358 65.06270842 -44.91749109 70.50113103 -50.375 75.9375 C-49.5279248 75.9468457 -48.68084961 75.95619141 -47.80810547 75.96582031 C-44.64305648 76.01002612 -41.47895188 76.07172527 -38.31445312 76.14501953 C-36.94901836 76.17311623 -35.58342436 76.19438677 -34.21777344 76.20849609 C-32.24645962 76.23007982 -30.27550369 76.2788546 -28.3046875 76.328125 C-27.12116699 76.34907227 -25.93764648 76.37001953 -24.71826172 76.39160156 C-19.60389528 77.22669163 -16.5097209 79.74305694 -13 83.4375 C-10.60196425 88.60250009 -10.62118465 93.3377288 -11.375 98.9375 C-13.68411275 103.91097362 -16.64738635 106.26936346 -21.375 108.9375 C-24.94140625 109.44543457 -24.94140625 109.44543457 -28.9375 109.45507812 C-29.67000977 109.4620874 -30.40251953 109.46909668 -31.15722656 109.47631836 C-33.56354382 109.49383397 -35.96867209 109.48229954 -38.375 109.46875 C-40.05599186 109.47144679 -41.73698221 109.47533077 -43.41796875 109.48034668 C-46.93504743 109.48623298 -50.4517188 109.47770709 -53.96875 109.45898438 C-58.46802189 109.43619501 -62.96633927 109.4493228 -67.46557617 109.47327423 C-70.93496847 109.48775591 -74.40413594 109.48311544 -77.87353516 109.47276306 C-79.53206496 109.47010231 -81.19061544 109.47334257 -82.84912109 109.48268127 C-85.17079421 109.49288646 -87.49094011 109.47729279 -89.8125 109.45507812 C-91.13121094 109.45189575 -92.44992187 109.44871338 -93.80859375 109.44543457 C-99.3254267 108.65971641 -102.1763314 106.35858842 -105.71765137 102.16015625 C-107.70496485 98.29589493 -107.88211752 95.70966312 -107.89257812 91.375 C-107.8995874 90.64249023 -107.90659668 89.90998047 -107.91381836 89.15527344 C-107.93133397 86.74895618 -107.91979954 84.34382791 -107.90625 81.9375 C-107.90894679 80.25650814 -107.91283077 78.57551779 -107.91784668 76.89453125 C-107.92373298 73.37745257 -107.91520709 69.8607812 -107.89648438 66.34375 C-107.87369501 61.84447811 -107.8868228 57.34616073 -107.91077423 52.84692383 C-107.92525591 49.37753153 -107.92061544 45.90836406 -107.91026306 42.43896484 C-107.90760231 40.78043504 -107.91084257 39.12188456 -107.92018127 37.46337891 C-107.93038646 35.14170579 -107.91479279 32.82155989 -107.89257812 30.5 C-107.88939575 29.18128906 -107.88621338 27.86257812 -107.88293457 26.50390625 C-107.12892424 21.20970633 -104.68298979 18.1800903 -100.875 14.5625 C-95.70999991 12.16446425 -90.9747712 12.18368465 -85.375 12.9375 C-80.39571169 15.24931243 -78.07442396 18.22576544 -75.375 22.9375 C-74.82910156 26.28076172 -74.82910156 26.28076172 -74.765625 29.8671875 C-74.73339844 31.15625 -74.70117188 32.4453125 -74.66796875 33.7734375 C-74.6532277 35.11978715 -74.63891 36.4661415 -74.625 37.8125 C-74.59681288 39.18232903 -74.56688163 40.55212335 -74.53515625 41.921875 C-74.46462243 45.26047602 -74.41184015 48.59838515 -74.375 51.9375 C-73.73099747 51.2801738 -73.08699493 50.6228476 -72.42347717 49.94560242 C-66.33429608 43.73590723 -60.2305616 37.54096542 -54.11028385 31.36191082 C-50.96471642 28.18510901 -47.82494178 25.00300471 -44.69799805 21.80786133 C-41.67678661 18.72117757 -38.64090209 15.64963675 -35.59454155 12.58777809 C-34.43830691 11.42050718 -33.28734164 10.24799091 -32.14195442 9.07007408 C-22.45398152 -0.88180269 -13.50126713 -8.25077436 0 0 Z " fill="#000000" transform="translate(427.375,67.0625)"/>
</svg>
