<?xml version="1.0" encoding="UTF-8"?>
<svg version="1.1" xmlns="http://www.w3.org/2000/svg" width="512" height="512">
<path d="M0 0 C7.11468015 4.13059797 10.82963348 9.36174254 13.76953125 17.02734375 C14.1431241 18.68545028 14.48865315 20.35103937 14.76953125 22.02734375 C16.34154297 21.17849609 16.34154297 21.17849609 17.9453125 20.3125 C19.32415227 19.57149087 20.70306219 18.83061225 22.08203125 18.08984375 C22.77232422 17.71666016 23.46261719 17.34347656 24.17382812 16.95898438 C25.17446289 16.42241211 25.17446289 16.42241211 26.1953125 15.875 C27.11437378 15.38012085 27.11437378 15.38012085 28.05200195 14.87524414 C34.08319081 11.89780009 41.70682762 12.19514478 48.19140625 13.5234375 C55.9986226 16.20149427 59.94998181 20.70330447 63.7890625 27.6484375 C64.9316963 30.42080398 65.37293099 33.06350311 65.76953125 36.02734375 C66.32415039 35.72965088 66.87876953 35.43195801 67.45019531 35.12524414 C69.97089449 33.77554731 72.49514933 32.43263907 75.01953125 31.08984375 C76.32857422 30.38698242 76.32857422 30.38698242 77.6640625 29.66992188 C78.50839844 29.22197266 79.35273438 28.77402344 80.22265625 28.3125 C80.99770508 27.8987915 81.77275391 27.48508301 82.57128906 27.05883789 C89.16376637 23.9654109 97.3935873 23.93827824 104.375 25.67578125 C110.94786928 28.32302981 116.12326987 32.41336167 119.08984375 38.92578125 C120.07569968 41.60758515 120.97098992 44.28452789 121.76953125 47.02734375 C122.88070313 46.9809375 123.991875 46.93453125 125.13671875 46.88671875 C136.14635497 46.55973664 144.64321992 46.92845074 153.14453125 54.71484375 C160.10285915 62.4197129 161.6970944 69.91851969 161.20703125 80.1484375 C160.21112155 88.97824403 156.16300663 94.20665832 149.60424805 99.89501953 C144.66315146 103.61179996 139.2219452 106.35651593 133.72909546 109.15328979 C130.14972544 110.97606617 126.59228291 112.84095021 123.03125 114.69921875 C122.32174698 115.06792587 121.61224396 115.436633 120.88124084 115.81651306 C114.65853197 119.0587362 108.54429568 122.47510058 102.45703125 125.96484375 C95.40485019 129.98093766 88.34564753 133.97890167 81.20703125 137.83984375 C80.4389917 138.2670874 79.67095215 138.69433105 78.87963867 139.13452148 C74.71541084 141.35840132 71.61625651 142.74828521 66.76953125 142.02734375 C63.44678721 139.5714025 61.99335117 138.10167935 61.14453125 134.02734375 C61.95450626 130.13946371 63.73832832 128.40086445 66.76953125 126.02734375 C70.3232283 123.82904873 74.00458469 121.89930759 77.70703125 119.96484375 C79.88304373 118.8077264 82.05882009 117.65016492 84.234375 116.4921875 C85.33120605 115.91194824 86.42803711 115.33170898 87.55810547 114.73388672 C92.31717503 112.20493003 97.04373014 109.61778288 101.76953125 107.02734375 C107.58657069 103.84107541 113.41417551 100.67791608 119.26953125 97.5625 C120.89568359 96.69334961 120.89568359 96.69334961 122.5546875 95.80664062 C124.64279012 94.69154815 126.73378789 93.58185414 128.828125 92.47851562 C137.54913681 88.15642954 137.54913681 88.15642954 143.76953125 81.02734375 C144.28390013 76.94178521 144.69051857 72.80886748 142.7578125 69.0703125 C139.61063249 65.18595519 137.16160177 64.19377006 132.2734375 63.609375 C126.33504967 63.70269059 121.72858905 66.82101615 116.70703125 69.71484375 C115.12764771 70.59789185 115.12764771 70.59789185 113.51635742 71.4987793 C110.25793339 73.32539416 107.01313456 75.17456575 103.76953125 77.02734375 C101.88221664 78.09369881 99.99422583 79.15885823 98.10546875 80.22265625 C94.36953823 82.32962989 90.63704628 84.44254412 86.90625 86.55859375 C40.39024993 112.88984934 -5.58484833 133.14275012 -60.10546875 133.33984375 C-61.16326538 133.34377136 -61.16326538 133.34377136 -62.24243164 133.34777832 C-77.7257896 133.35381102 -92.93638925 131.79861172 -108.28408813 129.87539673 C-112.9761134 129.28935156 -117.66987008 128.76100265 -122.37438965 128.28549194 C-125.43362189 127.97566166 -128.49089645 127.64867683 -131.5480957 127.31945801 C-132.98732029 127.16803271 -134.42728084 127.02342574 -135.86791992 126.8861084 C-137.85543965 126.69461784 -139.83998336 126.47296461 -141.82421875 126.25 C-142.94505859 126.13406494 -144.06589844 126.01812988 -145.22070312 125.89868164 C-149.06957325 124.78442 -150.73570809 123.11983126 -153.23046875 120.02734375 C-153.79296875 116.46484375 -153.79296875 116.46484375 -153.23046875 113.02734375 C-150.51065458 109.64064259 -148.5658594 108.50723662 -144.28759766 107.98168945 C-143.29002945 107.85053741 -142.29246124 107.71938538 -141.2646637 107.58425903 C-140.17314499 107.4584848 -139.08162628 107.33271057 -137.95703125 107.203125 C-136.21793739 106.98183426 -136.21793739 106.98183426 -134.44371033 106.756073 C-131.25074826 106.35278495 -128.05635336 105.96466641 -124.8608284 105.58233261 C-121.49265715 105.17505205 -118.12720742 104.74646397 -114.76147461 104.31958008 C-108.98950187 103.59004167 -103.21628615 102.87126696 -97.44189453 102.16113281 C-83.90350779 100.49609877 -70.36735776 98.81364939 -56.83491135 97.10096645 C-52.16580886 96.5108398 -47.49545591 95.93232814 -42.82378674 95.36289215 C-39.89854098 95.00421275 -36.97448691 94.63645033 -34.05066109 94.26639175 C-32.04291252 94.01513801 -30.03378711 93.77496415 -28.02464294 93.53512573 C-26.81840775 93.38069 -25.61217255 93.22625427 -24.36938477 93.06713867 C-23.32315445 92.93804611 -22.27692413 92.80895355 -21.19898987 92.6759491 C-16.44498128 91.63722467 -13.08729332 90.31258061 -10.35546875 86.21484375 C-9.13442728 82.75522626 -8.7010837 80.65741267 -9.23046875 77.02734375 C-11.37596189 73.0428565 -13.01982287 70.68933482 -17.23046875 69.02734375 C-19.37120473 68.73702053 -19.37120473 68.73702053 -21.65249634 68.78924561 C-22.5322966 68.78675308 -23.41209686 68.78426056 -24.31855774 68.7816925 C-25.7553614 68.79259163 -25.7553614 68.79259163 -27.22119141 68.80371094 C-28.23649429 68.80330307 -29.25179718 68.8028952 -30.29786682 68.80247498 C-32.50497393 68.80227736 -34.71208453 68.80632028 -36.91917801 68.81407928 C-40.42787666 68.82431604 -43.93622052 68.81891077 -47.44491577 68.80865479 C-57.42232339 68.7807192 -67.39953663 68.76797352 -77.37695312 68.79736328 C-83.48318521 68.81422186 -89.58878767 68.8015671 -95.69495773 68.77091217 C-98.00784422 68.76485782 -100.32078768 68.76954254 -102.63362503 68.78578949 C-115.46567247 68.8720676 -126.56871605 68.21872274 -138.58103943 63.45669556 C-143.52688987 61.51958166 -148.43825075 60.47738953 -153.66796875 59.65234375 C-154.64950928 59.4922583 -155.6310498 59.33217285 -156.64233398 59.16723633 C-170.84825672 57.08399823 -186.02739515 56.69082776 -200.23046875 59.02734375 C-204.31259314 59.3574689 -207.91810378 59.58509886 -211.73046875 57.96484375 C-213.97173386 55.06987632 -214.10383544 52.63639304 -214.23046875 49.02734375 C-213.45044364 46.40362291 -212.86970893 45.42027375 -210.54443359 43.9909668 C-201.18740832 40.09434528 -189.5704965 40.66935618 -179.60546875 40.71484375 C-178.29586182 40.7204834 -176.98625488 40.72612305 -175.63696289 40.73193359 C-159.71268302 40.92960486 -145.27844483 43.28372281 -130.11694336 48.13330078 C-129.2894458 48.39224121 -128.46194824 48.65118164 -127.609375 48.91796875 C-126.88306885 49.15547852 -126.1567627 49.39298828 -125.40844727 49.63769531 C-121.0071075 50.42511133 -117.53389072 48.86477086 -113.6953125 46.83203125 C-112.81907227 46.3716748 -111.94283203 45.91131836 -111.04003906 45.43701172 C-110.09225586 44.93057129 -109.14447266 44.42413086 -108.16796875 43.90234375 C-106.65154785 43.10207764 -106.65154785 43.10207764 -105.10449219 42.28564453 C-98.51358222 38.79946873 -91.94863918 35.26507849 -85.38256836 31.73242188 C-84.25987549 31.12849609 -83.13718262 30.52457031 -81.98046875 29.90234375 C-80.83908447 29.28810547 -79.6977002 28.67386719 -78.52172852 28.04101562 C-68.60625057 22.71800638 -58.61624422 17.5435172 -48.60546875 12.40234375 C-47.48513245 11.8268277 -47.48513245 11.8268277 -46.34216309 11.23968506 C-41.64257506 8.82708107 -36.93874656 6.42294307 -32.23046875 4.02734375 C-30.67827637 3.2369873 -30.67827637 3.2369873 -29.09472656 2.43066406 C-28.20366211 1.98045898 -27.31259766 1.53025391 -26.39453125 1.06640625 C-25.64896973 0.6895166 -24.9034082 0.31262695 -24.13525391 -0.07568359 C-16.99136677 -3.43977502 -7.19268375 -3.28592079 0 0 Z M-25.48046875 18.40234375 C-26.35598389 18.85496582 -27.23149902 19.30758789 -28.13354492 19.77392578 C-30.84014358 21.17767146 -33.53582995 22.60079949 -36.23046875 24.02734375 C-37.80426815 24.85106213 -39.3784692 25.67401368 -40.953125 26.49609375 C-44.04376272 28.11363911 -47.12898992 29.74096223 -50.2109375 31.375 C-56.86303413 34.89842998 -63.54552207 38.36378811 -70.2277832 41.82958984 C-75.94786216 44.8052248 -81.61286518 47.86236273 -87.23046875 51.02734375 C-87.23046875 51.35734375 -87.23046875 51.68734375 -87.23046875 52.02734375 C-58.36376939 53.76169375 -35.09617315 55.01326054 -11.23046875 37.02734375 C-10.03200317 36.18079224 -10.03200317 36.18079224 -8.80932617 35.31713867 C-4.39527344 32.18575034 -4.39527344 32.18575034 -1.54296875 27.58984375 C-1.15079166 23.1190249 -1.94086054 20.86797687 -4.23046875 17.02734375 C-6.99446198 14.64723847 -8.70516059 14.08504806 -12.32421875 13.6875 C-17.44267902 14.13280604 -20.99451071 16.00965692 -25.48046875 18.40234375 Z M28.54296875 32.5 C27.8734317 32.86073105 27.20389465 33.2214621 26.5140686 33.59312439 C24.38321629 34.74519297 22.2639636 35.91692347 20.14453125 37.08984375 C18.74552067 37.8509509 17.34578565 38.61072803 15.9453125 39.36914062 C13.20247991 40.85716043 10.46406507 42.35281378 7.72949219 43.85595703 C2.09634132 46.95050787 -3.56716224 49.98842201 -9.23046875 53.02734375 C-6.79597994 55.48514719 -4.3589264 57.7916095 -1.66796875 59.96484375 C1.180476 62.3670729 3.08389929 64.65607983 4.76953125 68.02734375 C10.98206279 66.10329831 16.51209253 63.22490089 22.26342773 60.22460938 C24.06328919 59.28710602 25.86820178 58.359935 27.67382812 57.43359375 C40.15477114 51.51524641 40.15477114 51.51524641 49.76953125 42.02734375 C50.30063468 38.97349905 50.39130464 37.0198783 48.71484375 34.34375 C46.92806589 32.13935247 45.32948931 30.30732278 42.76953125 29.02734375 C37.12000214 28.52967404 33.37951013 29.7838771 28.54296875 32.5 Z M82.70703125 45.27734375 C81.83054932 45.72916016 80.95406738 46.18097656 80.05102539 46.64648438 C72.99454314 50.30971635 66.02719849 54.13871477 59.06958008 57.9855957 C48.43861174 63.82953601 37.61735518 69.30708028 26.80053711 74.796875 C14.6304435 80.02767776 14.6304435 80.02767776 5.2890625 88.4921875 C4.93908203 89.71615234 4.93908203 89.71615234 4.58203125 90.96484375 C2.1115943 98.14188904 -1.68253708 102.27444438 -8.29711914 105.84790039 C-14.50422492 108.34365803 -21.25676267 108.80634046 -27.85546875 109.58984375 C-29.44195271 109.79213869 -31.02821456 109.99618261 -32.61425781 110.2019043 C-35.86632466 110.62071431 -39.11945246 111.02885691 -42.37402344 111.42773438 C-47.08186028 112.00564602 -51.78541068 112.61358862 -56.48828125 113.23046875 C-63.7336501 114.17907883 -70.98107789 115.10988649 -78.23046875 116.02734375 C-78.23046875 116.35734375 -78.23046875 116.68734375 -78.23046875 117.02734375 C-27.83092948 117.96583784 16.81515566 107.83449612 60.66015625 82.51171875 C68.30601506 78.110468 76.09925716 73.98576786 83.90283203 69.87231445 C95.2338087 64.1859416 95.2338087 64.1859416 104.76953125 56.02734375 C105.76518255 52.18697444 106.17129709 49.95774886 104.58203125 46.27734375 C101.78226441 42.80177112 100.24952238 41.19095141 95.6953125 40.6875 C90.6290421 41.12607266 87.15043192 42.91600124 82.70703125 45.27734375 Z " fill="#000000" transform="translate(351.23046875,297.97265625)"/>
<path d="M0 0 C3.82837349 3.3539345 7.51161545 6.83982173 11.1328125 10.41503906 C11.9825061 11.23403687 11.9825061 11.23403687 12.84936523 12.06958008 C36.23244959 34.88413705 51.76582873 69.1760848 53.29394531 101.86157227 C53.67445389 134.52115423 53.67445389 134.52115423 50.1328125 148.41503906 C49.93945312 149.19669434 49.74609375 149.97834961 49.546875 150.78369141 C43.53160659 174.42239665 32.3210216 196.52524264 15.2890625 214.15332031 C13.07595074 216.40773744 13.07595074 216.40773744 11.06640625 219.00878906 C8.14586416 222.64324144 4.72228885 225.45731055 1.1328125 228.41503906 C0.19308594 229.19234375 -0.74664062 229.96964844 -1.71484375 230.77050781 C-33.62892655 256.55231829 -73.73890161 266.28246891 -114.1015625 262.13378906 C-144.13086335 258.62872968 -172.68752342 245.08467153 -194.68359375 224.42285156 C-196.88326931 222.35101208 -196.88326931 222.35101208 -199.4453125 220.37207031 C-203.07938218 217.43550756 -205.90087758 214.01039135 -208.8671875 210.41503906 C-209.63289063 209.49851563 -210.39859375 208.58199219 -211.1875 207.63769531 C-236.95362331 175.61177715 -246.19349564 135.51824858 -242.56689453 95.06542969 C-237.70326546 56.87509897 -216.76755836 20.68982259 -186.3671875 -2.89746094 C-131.55898723 -44.03629343 -53.13129314 -45.10046484 0 0 Z M-124.8671875 -14.58496094 C-125.54475098 -14.42398926 -126.22231445 -14.26301758 -126.92041016 -14.09716797 C-151.3388686 -8.16216558 -172.24872393 4.70150115 -189.8671875 22.41503906 C-190.75019531 23.29804687 -191.63320312 24.18105469 -192.54296875 25.09082031 C-217.8212627 51.62713201 -227.66562175 86.2012964 -227.18359375 122.14550781 C-226.89122359 131.54416878 -225.38296631 140.37311917 -222.8671875 149.41503906 C-222.68526855 150.08631836 -222.50334961 150.75759766 -222.31591797 151.44921875 C-217.1259463 170.04777672 -207.1720352 186.6845951 -194.8671875 201.41503906 C-194.35285156 202.053125 -193.83851563 202.69121094 -193.30859375 203.34863281 C-189.57339159 207.89363489 -185.41393262 211.69225105 -180.8671875 215.41503906 C-179.46146484 216.57712891 -179.46146484 216.57712891 -178.02734375 217.76269531 C-151.59681788 239.12664003 -117.34192113 249.94353436 -83.390625 246.94628906 C-48.96764665 243.21022839 -16.0140334 227.51877655 6.1328125 200.41503906 C6.89464844 199.50238281 7.65648437 198.58972656 8.44140625 197.64941406 C31.99549705 168.39971629 40.62910221 132.64552748 36.70703125 95.46972656 C36.13446201 91.37133624 35.23148753 87.40234458 34.1328125 83.41503906 C33.91238281 82.61227539 33.69195312 81.80951172 33.46484375 80.98242188 C23.75322911 46.90184829 1.98489292 17.32013636 -28.8671875 -0.58496094 C-41.58318702 -7.65224224 -54.7469148 -12.21455176 -68.8671875 -15.58496094 C-70.50107422 -15.98521484 -70.50107422 -15.98521484 -72.16796875 -16.39355469 C-89.10051805 -19.71590874 -108.15844 -18.75283528 -124.8671875 -14.58496094 Z " fill="#000000" transform="translate(350.8671875,33.5849609375)"/>
<path d="M0 0 C2.5 1.5 2.5 1.5 4 4 C4.60392884 6.80683118 4.86605819 9.24582738 4 12 C0.40950888 15.54324782 -3.70450519 17.33021896 -8.3125 19.1875 C-21.88548875 24.904674 -35.70069887 32.28307774 -47.06542969 41.713974 C-53.72820795 46.96502144 -58.55309304 47.97473757 -66.9140625 47.68359375 C-68.37332153 47.67301941 -68.37332153 47.67301941 -69.86206055 47.66223145 C-73.45030581 47.62597099 -77.03771906 47.52824318 -80.625 47.4375 C-88.66875 47.293125 -96.7125 47.14875 -105 47 C-105 74.39 -105 101.78 -105 130 C-98.8434375 129.8453125 -92.686875 129.690625 -86.34375 129.53125 C-62.89601237 129.32961408 -39.73631704 131.15077324 -16.40625 133.28125 C-15.50462505 133.36340885 -14.60300011 133.4455677 -13.67405319 133.53021622 C-1.521266 134.6401698 10.62748384 135.79144949 22.77539062 136.95343018 C37.0134999 138.31453996 51.25423323 139.64783094 65.49651575 140.96450567 C70.79057456 141.45486718 76.08328282 141.95743632 81.37525892 142.46975851 C149.71183336 149.05953378 199.96077584 128.78671466 259.27124023 95.19482422 C262.58189624 93.3210548 265.90890018 91.48336567 269.28125 89.72265625 C269.91482422 89.39015869 270.54839844 89.05766113 271.20117188 88.71508789 C274.09395523 87.56512013 276.12350066 87.99657 279 89 C281.59191186 90.69814915 281.96408796 91.8820033 282.875 94.875 C283.028859 98.721475 282.26688417 99.92931313 280 103 C277.44165039 104.79833984 277.44165039 104.79833984 274.34765625 106.4609375 C273.19305908 107.08967773 272.03846191 107.71841797 270.84887695 108.36621094 C269.58698331 109.03624442 268.32485116 109.70582887 267.0625 110.375 C265.75359468 111.08002396 264.44525323 111.78609567 263.13745117 112.49316406 C260.431916 113.95329612 257.7223811 115.40560607 255.00976562 116.85253906 C251.24708475 118.86236349 247.50470308 120.90763557 243.765625 122.9609375 C188.5847519 153.13285644 141.23294624 165.26273974 78.83142281 159.25262642 C73.48424061 158.73777584 68.13525685 158.24355882 62.78587341 157.75218201 C48.53312644 156.44013989 34.28237594 155.10704645 20.03358018 153.75276124 C7.9425532 152.60374993 -4.15037903 151.4774973 -16.24609375 150.37890625 C-17.15048297 150.2963699 -18.0548722 150.21383355 -18.98666716 150.1287961 C-45.82331814 147.68612486 -72.47692901 146.12930886 -99.43296814 146.23353577 C-101.10048409 146.23510398 -101.10048409 146.23510398 -102.80168724 146.23670387 C-104.83895251 146.24259383 -106.87624923 146.2623998 -108.91318703 146.29939842 C-109.79830153 146.30367662 -110.68341602 146.30795483 -111.59535217 146.31236267 C-112.35574327 146.32406966 -113.11613436 146.33577665 -113.8995676 146.3478384 C-116.68244601 145.88698473 -118.01238846 144.98842936 -120 143 C-120.50615788 140.95535374 -120.50615788 140.95535374 -120.5146637 138.5660553 C-120.52738815 137.65898331 -120.54011261 136.75191132 -120.55322266 135.81735229 C-120.54669678 134.82454254 -120.5401709 133.83173279 -120.53344727 132.80883789 C-120.54206284 131.76143936 -120.55067841 130.71404083 -120.55955505 129.63490295 C-120.58230457 126.16390446 -120.57545911 122.69370749 -120.56640625 119.22265625 C-120.57163804 116.81513731 -120.57791287 114.40762044 -120.58518982 112.00010681 C-120.59561083 106.95024991 -120.59100824 101.90067449 -120.57641602 96.85083008 C-120.55923104 90.37270575 -120.58271216 83.89546856 -120.61790562 77.41744328 C-120.63984493 72.44435219 -120.63844637 67.47147447 -120.6301403 62.49835014 C-120.62931879 60.10968491 -120.63622013 57.72100431 -120.65091133 55.33238411 C-120.66829116 51.99455049 -120.6538674 48.65832492 -120.63110352 45.32055664 C-120.64279572 44.32977112 -120.65448792 43.3389856 -120.66653442 42.31817627 C-120.57426388 35.68339908 -120.57426388 35.68339908 -117.79769897 32.37916565 C-114.75314889 30.87831122 -112.9786887 30.53509183 -109.60571289 30.61279297 C-108.55013687 30.62535126 -107.49456085 30.63790955 -106.40699768 30.65084839 C-105.27366501 30.6809903 -104.14033234 30.7111322 -102.97265625 30.7421875 C-100.54623391 30.75694634 -98.1198001 30.76990864 -95.69335938 30.78125 C-91.8879955 30.82036714 -88.08460433 30.87449208 -84.2800293 30.96191406 C-68.20737283 31.29320096 -57.97970093 31.26907671 -46 20 C-37.59218891 14.07370855 -28.26447136 9.47388867 -19.0625 4.9375 C-18.09127197 4.44773682 -17.12004395 3.95797363 -16.11938477 3.45336914 C-10.44038333 0.72124553 -6.3136436 -0.7331514 0 0 Z " fill="#000000" transform="translate(120,350)"/>
<path d="M0 0 C0.65880157 0.00054382 1.31760315 0.00108765 1.99636841 0.00164795 C12.94884998 0.0431051 23.0324326 0.91979187 33.4375 4.375 C34.0867041 4.58930664 34.7359082 4.80361328 35.40478516 5.02441406 C63.50160493 14.64920348 85.60114918 34.71408772 98.68676758 61.27856445 C110.77241172 86.83974783 113.13518442 116.17876606 104.22753906 143.20703125 C99.33462667 156.63381185 92.78309137 168.58306711 83.4375 179.375 C82.84453125 180.11621094 82.2515625 180.85742188 81.640625 181.62109375 C65.25068543 201.64023422 39.2920724 213.49272693 14.0625 217.125 C-18.96388853 219.71406679 -48.42950686 210.63296587 -73.6875 189.1875 C-82.5044879 180.97362854 -89.8542939 170.96080636 -95.5625 160.375 C-95.98917969 159.61316406 -96.41585937 158.85132813 -96.85546875 158.06640625 C-104.83416306 143.11556061 -110.52543902 123.47585858 -108.5625 106.375 C-107.56379068 103.97723668 -106.93258721 102.66284561 -104.875 101.0625 C-101.49088082 100.05641051 -98.96583226 100.57057601 -95.5625 101.375 C-93.35792076 103.01470829 -92.65712077 103.9712474 -92.02587891 106.66479492 C-91.94772949 107.55271729 -91.86958008 108.44063965 -91.7890625 109.35546875 C-91.63981323 110.84252319 -91.63981323 110.84252319 -91.48754883 112.35961914 C-91.38853271 113.41656982 -91.2895166 114.47352051 -91.1875 115.5625 C-88.90005368 136.16483803 -82.29427731 156.35615921 -66.83203125 171.015625 C-65.5625 172.375 -65.5625 172.375 -65.5625 174.375 C-64.97210938 174.64054688 -64.38171875 174.90609375 -63.7734375 175.1796875 C-61.50533948 176.40590304 -60.02897902 177.70851588 -58.1875 179.5 C-40.43540421 195.33830107 -16.15875482 201.2665643 7.08300781 200.51123047 C27.36045367 199.33798132 49.0003773 190.4605035 63.0859375 175.640625 C64.4375 174.375 64.4375 174.375 66.4375 174.375 C66.70304688 173.78460938 66.96859375 173.19421875 67.2421875 172.5859375 C68.46840304 170.31783948 69.77101588 168.84147902 71.5625 167 C81.86798969 155.3875771 89.12622007 138.7134941 91.4375 123.375 C91.54707031 122.66472656 91.65664063 121.95445312 91.76953125 121.22265625 C92.07042272 118.93989297 92.27672322 116.6718111 92.4375 114.375 C92.51871094 113.21484375 92.51871094 113.21484375 92.6015625 112.03125 C93.41981471 87.93000298 84.76632488 64.18234629 68.5 46.4375 C53.83439224 31.02543915 34.78450574 20.02243085 13.4375 17.375 C11.91189453 17.17583984 11.91189453 17.17583984 10.35546875 16.97265625 C-13.79268939 14.51644359 -37.9805969 21.42155319 -57.01367188 36.55273438 C-70.78188274 47.8484252 -79.56566954 60.56599451 -85.96313477 77.11669922 C-86.26276123 77.88771973 -86.5623877 78.65874023 -86.87109375 79.453125 C-87.12689209 80.13793945 -87.38269043 80.82275391 -87.64624023 81.52832031 C-88.70281941 83.65780737 -89.68791635 84.90970556 -91.5625 86.375 C-98.35495283 87.12971698 -98.35495283 87.12971698 -102.0625 84.8125 C-104.12405478 81.46247349 -104.30336912 79.13226484 -103.5625 75.375 C-99.23343903 60.55629129 -90.94679951 46.70176894 -80.5625 35.375 C-79.71945313 34.45074219 -78.87640625 33.52648437 -78.0078125 32.57421875 C-57.49884691 11.08438958 -29.46286882 -0.04118848 0 0 Z " fill="#000000" transform="translate(255.5625,39.625)"/>
<path d="M0 0 C0.66 -0.01289062 1.32 -0.02578125 2 -0.0390625 C5.23008503 1.03342667 6.27442798 2.7426839 8 5.625 C8.28614917 8.38633953 8.38589883 10.70645612 8.25 13.4375 C8.23195313 14.13037109 8.21390625 14.82324219 8.1953125 15.53710938 C8.14851064 17.23367664 8.07677624 18.92952476 8 20.625 C9.07121094 20.74617188 10.14242187 20.86734375 11.24609375 20.9921875 C18.21745966 22.16738134 23.26143492 26.13287296 27.61328125 31.60546875 C31.03915743 36.59470251 33.64074204 41.43352643 34.625 47.4375 C33.79948249 51.64763931 32.46573427 53.13871237 29 55.625 C26 56.25 26 56.25 23 55.625 C19.19956454 52.84419356 17.49828021 49.73614077 15.5625 45.5625 C13.40945616 41.08976805 11.7315876 38.62682552 7 36.625 C1.066927 35.70304167 -3.7414828 36.63486277 -9 39.625 C-13.89103688 44.77345987 -14.29624179 49.04805174 -14.21484375 55.89453125 C-13.93421826 59.46102609 -13.10021228 61.72815547 -11 64.625 C-6.53915827 68.03979163 -1.82814821 68.54776673 3.5625 69.4375 C13.75221135 71.31406675 24.28795982 73.79629207 30.8203125 82.58984375 C36.25573596 91.96684912 37.59758908 101.34440655 34.8125 111.8125 C31.66509132 121.02158466 26.20116052 128.54711799 17.33203125 132.94921875 C10.82565789 135.625 10.82565789 135.625 8 135.625 C8.04640625 136.66140625 8.0928125 137.6978125 8.140625 138.765625 C8.17815275 140.13538779 8.21455184 141.50518182 8.25 142.875 C8.30027344 143.89787109 8.30027344 143.89787109 8.3515625 144.94140625 C8.41919789 148.42462886 8.28679107 150.2524116 6.1328125 153.05078125 C3.5815722 154.93383957 2.17932976 155.54930167 -1 155.625 C-6.63855422 153.34789157 -6.63855422 153.34789157 -8 150.625 C-8.07181821 147.90739892 -8.09299506 145.21640612 -8.0625 142.5 C-8.05798828 141.74589844 -8.05347656 140.99179688 -8.04882812 140.21484375 C-8.03703499 138.35152873 -8.01909942 136.48825445 -8 134.625 C-8.556875 134.47804687 -9.11375 134.33109375 -9.6875 134.1796875 C-20.95221514 130.8687746 -28.67223075 123.18222614 -35.0625 113.5 C-36.27327325 109.78696204 -35.99200693 107.38045481 -35 103.625 C-33.9375 101.6875 -33.9375 101.6875 -32 100.625 C-27.05921771 99.81503569 -27.05921771 99.81503569 -24 100.625 C-21.52780047 102.61567848 -19.82591793 105.04664336 -18 107.625 C-14.0849988 112.80914994 -10.41896719 116.81699091 -4 118.625 C1.62789452 119.34329706 6.30810253 119.41052382 11.5 117 C16.56363381 112.18954788 18.74488777 108.06901513 19.25 101.25 C18.96390945 97.10168704 18.41226242 95.01724403 16 91.625 C10.49045739 87.88884668 4.58150858 86.77429678 -1.875 85.75 C-11.52410659 83.9975403 -19.00210741 81.61250596 -25.4375 73.8125 C-31.739807 64.3144056 -32.61129991 53.65109766 -30.37890625 42.53125 C-28.21972805 35.69865055 -24.55069714 30.18618407 -19 25.625 C-17.20669806 24.86938071 -15.39316052 24.15998062 -13.5625 23.5 C-10.93512706 22.53206869 -10.93512706 22.53206869 -9 20.625 C-8.17407251 16.62624723 -8.1189606 13.30262946 -8.2578125 9.21875 C-7.88686692 4.04799343 -5.64857144 -0.11032366 0 0 Z " fill="#000000" transform="translate(256,70.375)"/>
</svg>
