<?xml version="1.0" encoding="UTF-8"?>
<svg version="1.1" xmlns="http://www.w3.org/2000/svg" width="512" height="512">
<path d="M0 0 C0.92603163 -0.00445784 1.85206326 -0.00891569 2.80615646 -0.01350862 C4.34244139 -0.01323207 4.34244139 -0.01323207 5.90976238 -0.01294994 C7.53402984 -0.01846498 7.53402984 -0.01846498 9.19111079 -0.02409142 C12.84437757 -0.03516431 16.49761594 -0.03897827 20.15089703 -0.04278088 C22.76060865 -0.04904303 25.37031937 -0.0556896 27.98002911 -0.0626936 C35.83249531 -0.08247403 43.68496282 -0.09252909 51.53744772 -0.10142139 C55.23714233 -0.10580427 58.9368355 -0.11117132 62.63652897 -0.11641026 C74.9405214 -0.13342893 87.24451293 -0.14792012 99.54851532 -0.155159 C102.74296158 -0.15706886 105.93740783 -0.15898919 109.13185406 -0.16094494 C110.32278372 -0.16167055 110.32278372 -0.16167055 111.53777256 -0.16241082 C124.38112914 -0.17069979 137.22439224 -0.19601464 150.06770805 -0.22852562 C163.26073079 -0.26164858 176.45370614 -0.27961274 189.64677066 -0.28280324 C197.05114194 -0.28496418 204.45537716 -0.29365098 211.85970783 -0.31926441 C218.83233716 -0.34332862 225.80471861 -0.34676421 232.77738094 -0.33650303 C235.33105883 -0.33600833 237.88474886 -0.34230911 240.43838978 -0.35605907 C271.43346791 -0.51355342 271.43346791 -0.51355342 282.6867857 9.14984608 C291.01069085 17.69235884 294.08832043 26.93271466 293.981143 38.62518787 C293.98370627 39.65699492 293.98626955 40.68880196 293.9889105 41.75187588 C293.99383665 45.19589146 293.97737434 48.63946489 293.96095562 52.08343983 C293.9601091 54.55749469 293.96058498 57.03155031 293.96228313 59.50560474 C293.96296544 64.82520663 293.95447772 70.1446719 293.93756962 75.46423817 C293.91313969 83.15531798 293.90537028 90.84634449 293.90160564 98.5374589 C293.89504741 111.01717167 293.87510333 123.49682546 293.84669781 135.97650623 C293.81914096 148.09596939 293.79791535 160.21541649 293.78517437 172.33490467 C293.7843862 173.08253877 293.78359803 173.83017287 293.78278597 174.60046256 C293.77887073 178.35129926 293.77507964 182.10213609 293.77135026 185.85297298 C293.74027392 216.94676523 293.68723152 248.04048418 293.62037945 279.13422108 C294.43174862 279.19584934 295.24311779 279.25747761 296.07907391 279.3209734 C297.15013882 279.40557316 298.22120373 279.49017292 299.32472515 279.57733631 C300.91302891 279.70071621 300.91302891 279.70071621 302.53341961 279.82658863 C306.7430477 280.24610111 310.7295816 281.09670068 314.80787945 282.19672108 C315.61032085 282.41223621 316.41276226 282.62775135 317.23952007 282.84979725 C335.14263848 287.9355908 349.15727573 297.43317983 362.62037945 310.13422108 C363.25846539 310.71945545 363.89655132 311.30468983 364.5539732 311.90765858 C369.35760288 316.46522259 373.03477237 321.58411657 376.62037945 327.13422108 C377.20948101 328.04043201 377.79858257 328.94664295 378.4055357 329.88031483 C387.55625457 344.70246826 392.73124375 361.72871628 393.62037945 379.13422108 C393.69965679 380.53801014 393.69965679 380.53801014 393.7805357 381.97015858 C394.53490608 408.01233611 385.87793853 434.53385761 368.62037945 454.13422108 C367.95651226 454.9411742 367.29264507 455.74812733 366.6086607 456.57953358 C349.06816893 477.26499337 323.26080667 489.61163629 296.38600445 491.97797108 C288.24797919 492.43774652 280.15490106 492.4762337 272.09694195 491.15765858 C269.43769487 491.0119071 269.43769487 491.0119071 266.29070473 492.11688328 C260.39052346 493.62620535 254.47301674 493.41012698 248.41861248 493.38818836 C247.08168523 493.39049531 245.74475925 493.39367341 244.4078359 493.39764285 C240.74914152 493.40596739 237.09055191 493.40187626 233.43185723 493.39567041 C229.48017976 493.39113728 225.52852004 493.39813399 221.57684612 493.40363026 C213.84117887 493.41251695 206.10555046 493.4106054 198.3698817 493.40480497 C192.08153056 493.40028532 185.79319029 493.3996769 179.50483799 493.40185261 C178.60930337 493.40215907 177.71376876 493.40246554 176.79109673 493.40278129 C174.97173258 493.40342076 173.15236843 493.40406918 171.33300429 493.40472648 C154.27804028 493.41042773 137.22309778 493.40387525 120.1681373 493.39312574 C105.54128602 493.38419195 90.91446649 493.38574126 76.28761578 493.39496326 C59.29456877 493.40567214 42.30154061 493.40987682 25.30849069 493.40373874 C23.49557269 493.40310165 21.68265468 493.40247291 19.86973667 493.40185261 C18.53181855 493.40138978 18.53181855 493.40138978 17.16687177 493.4009176 C10.88821219 493.3991924 4.60956459 493.40210203 -1.66909313 493.40681171 C-9.32381935 493.41242746 -16.97850456 493.41088956 -24.63322609 493.40025023 C-28.53710828 493.39500263 -32.44092216 493.39292118 -36.34480381 493.39954853 C-39.92187077 493.4055291 -43.4988064 493.40219827 -47.07586152 493.39159343 C-48.97560663 493.38831812 -50.87536094 493.39481155 -52.77509636 493.40170789 C-64.85190825 493.34653426 -74.45092301 491.37124141 -83.6491518 483.09125233 C-91.36837493 474.99967335 -94.48848505 465.82001636 -94.52222157 454.74728394 C-94.52852951 453.44992253 -94.53483745 452.15256112 -94.54133654 450.81588572 C-94.54331998 449.37798621 -94.54519696 447.94008655 -94.54697895 446.50218678 C-94.5524275 444.97327061 -94.55829121 443.44435589 -94.56453466 441.91544276 C-94.58037044 437.71220548 -94.58989621 433.50897402 -94.5982995 429.30571616 C-94.60630947 425.70107284 -94.6179986 422.09644521 -94.62971431 418.49181231 C-94.67158972 405.58487526 -94.69882075 392.67791978 -94.72337055 379.77093983 C-94.72534545 378.75247991 -94.72732035 377.73402 -94.7293551 376.68469766 C-94.7685127 356.46343641 -94.80221291 336.24216898 -94.82443714 316.02088165 C-94.82940643 311.57664639 -94.83445077 307.13241123 -94.83958149 302.68817616 C-94.84085216 301.58358407 -94.84212283 300.47899198 -94.84343201 299.3409274 C-94.86480346 281.43751295 -94.91381272 263.53428174 -94.97382563 245.63095953 C-95.03492469 227.25224282 -95.06962149 208.87362073 -95.07891035 190.49480373 C-95.08482423 180.17470614 -95.10260697 169.8549193 -95.15029621 159.5349226 C-95.19086207 150.74841559 -95.20778804 141.96227008 -95.19364339 133.17567357 C-95.1871693 128.69243652 -95.19207218 124.20996973 -95.22751713 119.72685146 C-95.25971615 115.62135058 -95.25951835 111.51716385 -95.2337001 107.41162965 C-95.23005092 105.92777693 -95.23821364 104.44383747 -95.25948161 102.96013268 C-95.42717945 90.50940375 -95.42717945 90.50940375 -91.07055092 85.44780827 C-89.86733738 84.3138221 -88.63981677 83.20452615 -87.37962055 82.13422108 C-86.32984673 81.02215589 -86.32984673 81.02215589 -85.25886536 79.88762474 C-84.37645786 79.0046517 -84.37645786 79.0046517 -83.47622395 78.10384083 C-82.78794514 77.4127422 -82.09966633 76.72164356 -81.39053059 76.00960255 C-80.66142979 75.28252598 -79.93232899 74.55544941 -79.18113422 73.80634022 C-77.999361 72.62193851 -77.999361 72.62193851 -76.79371357 71.4136095 C-74.21416531 68.82969411 -71.63101754 66.24941303 -69.0475893 63.66937733 C-67.24619903 61.86731294 -65.44495718 60.06510018 -63.643857 58.26274586 C-59.88235185 54.49977105 -56.11910363 50.73855162 -52.35447407 46.9787035 C-48.00186614 42.63155995 -43.65290426 38.28079371 -39.30577201 33.92817503 C-35.11396567 29.73129058 -30.9193599 25.53721284 -26.72354794 21.3443327 C-24.94094905 19.56240213 -23.15909613 17.779725 -21.37799358 15.99629879 C-18.89811267 13.5138907 -16.41507044 11.03468958 -13.93113422 8.55634022 C-13.19191227 7.81509403 -12.45269032 7.07384785 -11.6910677 6.31013966 C-10.67979816 5.30309986 -10.67979816 5.30309986 -9.64809895 4.27571583 C-9.06171241 3.68970632 -8.47532587 3.1036968 -7.87117004 2.49992943 C-5.26136451 0.11031163 -3.43474641 0.00764779 0 0 Z M6.62037945 17.13422108 C6.61158009 18.1532703 6.61158009 18.1532703 6.60260296 19.19290638 C6.53839506 26.29909991 6.45390568 33.404852 6.35792828 40.51068592 C6.32478723 43.15841297 6.29672205 45.80620882 6.2739439 48.4540453 C6.24019928 52.27221313 6.18787156 56.08975651 6.1320982 59.90765858 C6.12570827 61.08097736 6.11931835 62.25429615 6.11273479 63.46317005 C5.92361535 74.16787929 4.00951097 83.99839837 -3.37962055 92.13422108 C-13.12626133 99.99550129 -24.09000439 100.42476473 -36.16868305 100.54828358 C-37.35312 100.56764973 -38.53755695 100.58701588 -39.75788593 100.60696888 C-43.50672633 100.66630821 -47.2555982 100.71296659 -51.00462055 100.75922108 C-53.56062285 100.79744288 -56.11661284 100.836497 -58.6725893 100.87640858 C-64.90815644 100.97197184 -71.14379889 101.05715031 -77.37962055 101.13422108 C-77.47115956 146.98729216 -77.54165089 192.84035358 -77.58388187 238.69349802 C-77.58888475 244.10586809 -77.59406203 249.51823799 -77.59934711 254.9306078 C-77.60039636 256.00812124 -77.6014456 257.08563469 -77.60252663 258.19580007 C-77.61993577 275.64681168 -77.65147628 293.09777063 -77.68823174 310.548751 C-77.72562698 328.45270281 -77.74785341 346.35662703 -77.75597453 364.2606163 C-77.76146523 375.30992359 -77.77881233 386.35908202 -77.81128642 397.40834349 C-77.8324168 404.9834138 -77.83882393 412.55840705 -77.83362606 420.13350469 C-77.83106199 424.50512312 -77.83501532 428.87648129 -77.85644245 433.24805355 C-77.87592286 437.25169204 -77.87688106 441.25489549 -77.86321613 445.2585541 C-77.86152751 446.70553277 -77.86658931 448.15253871 -77.87915328 449.59946382 C-78.17749573 460.61533198 -78.17749573 460.61533198 -73.37962055 470.13422108 C-67.9802115 475.37880078 -62.93516063 476.82373321 -55.52299303 476.90870893 C-54.4052698 476.89123188 -53.28754658 476.87375483 -52.13595295 476.85574818 C-50.92769873 476.86087473 -49.71944451 476.86600127 -48.47457653 476.87128317 C-45.14204787 476.87942344 -41.81165953 476.86081044 -38.47939098 476.83061481 C-34.87829069 476.80459989 -31.27725144 476.81347957 -27.67608356 476.81802845 C-21.44404753 476.82116805 -15.21238965 476.80241202 -8.98044872 476.76860142 C0.02972105 476.71974982 9.03970876 476.70420366 18.04999661 476.69667347 C32.66999664 476.68355564 47.28979532 476.64366397 61.90968609 476.5868578 C76.10791806 476.5317475 90.30609526 476.48929468 104.50441265 476.46381092 C105.38022484 476.46223458 106.25603703 476.46065824 107.15838898 476.45903413 C111.55226987 476.45120366 115.94615116 476.44362147 120.3400327 476.43616271 C156.76695708 476.3740058 193.19365256 476.26836496 229.62037945 476.13422108 C226.69659755 473.17671481 223.86028145 470.45293318 220.49537945 468.00922108 C207.77971836 458.18252445 198.7288045 446.43929792 191.62037945 432.13422108 C190.45324759 432.13183272 189.28611574 432.12944437 188.08361626 432.12698364 C160.39508855 432.0696573 132.70663614 431.99695071 105.01820008 431.9052348 C101.61223745 431.89396627 98.20627441 431.88282787 94.80031109 431.87176991 C94.12222847 431.86956622 93.44414584 431.86736254 92.74551526 431.86509208 C81.7576922 431.82969357 70.76986921 431.80484388 59.78201022 431.78387406 C48.51233774 431.7621323 37.2427393 431.7288738 25.97312576 431.68551952 C19.64108593 431.66152722 13.3091284 431.64283787 6.97704411 431.63660717 C1.02220993 431.63058343 -4.9324135 431.61068228 -10.88716984 431.57994556 C-13.07736024 431.57112168 -15.26757814 431.56745168 -17.45778561 431.56921291 C-20.43912361 431.57085397 -23.41981014 431.55426664 -26.40105915 431.53294849 C-27.71281926 431.54021986 -27.71281926 431.54021986 -29.05107957 431.54763812 C-34.89637751 431.47825689 -34.89637751 431.47825689 -37.10066825 429.90895349 C-38.77009436 427.59238185 -38.75552737 426.19797672 -38.75714397 423.35374165 C-38.76887884 421.86885565 -38.76887884 421.86885565 -38.78085077 420.35397196 C-38.7741586 419.26361847 -38.76746644 418.17326499 -38.76057148 417.04987049 C-38.76759144 415.31573265 -38.76759144 415.31573265 -38.77475321 413.54656172 C-38.78467077 410.3323708 -38.78107184 407.11851792 -38.77179456 403.90433526 C-38.76502346 400.44006695 -38.77547562 396.97584531 -38.78373432 393.51158619 C-38.79709466 386.72305563 -38.79418372 379.93462441 -38.7854964 373.14608991 C-38.77872929 367.63035062 -38.77779891 362.11463923 -38.78106785 356.59889698 C-38.78152755 355.81474239 -38.78198725 355.0305878 -38.78246088 354.22267094 C-38.78342002 352.62982173 -38.78439266 351.03697252 -38.78537865 349.44412333 C-38.79393928 334.49769414 -38.78408787 319.55132009 -38.76797755 304.60489994 C-38.75457375 291.77203535 -38.75690166 278.93925217 -38.77073383 266.10638905 C-38.78677778 251.21451301 -38.79311525 236.32268534 -38.78389704 221.43080187 C-38.78294137 219.84371631 -38.78199825 218.25663075 -38.78106785 216.66954517 C-38.78060502 215.88860907 -38.7801422 215.10767296 -38.77966534 214.30307212 C-38.77707189 208.79209018 -38.78145409 203.28113884 -38.78850651 197.77016163 C-38.79690856 191.0567802 -38.79466877 184.34350403 -38.77866428 177.6301347 C-38.77076399 174.20293229 -38.7677196 170.77590557 -38.77761173 167.34870434 C-38.7857567 163.63848241 -38.77559069 159.92876131 -38.76057148 156.21857166 C-38.77060973 154.58304144 -38.77060973 154.58304144 -38.78085077 152.9144702 C-38.76911591 151.4295842 -38.76911591 151.4295842 -38.75714397 149.91470051 C-38.75665692 149.05777906 -38.75616986 148.20085761 -38.75566804 147.31796885 C-38.37962055 145.13422108 -38.37962055 145.13422108 -37.14309227 143.35903633 C-34.87916378 141.78662997 -33.53353251 141.75832835 -30.78654957 141.75669765 C-29.36436469 141.74496279 -29.36436469 141.74496279 -27.91344881 141.73299086 C-26.86978671 141.73968303 -25.8261246 141.74637519 -24.75083637 141.75327015 C-23.64374711 141.74859018 -22.53665784 141.74391021 -21.39602041 141.73908842 C-17.6671265 141.72707295 -13.93859566 141.73662141 -10.20969868 141.74603748 C-7.54419593 141.74197469 -4.87871864 141.73674347 -2.21322346 141.73010731 C4.2865469 141.71674798 10.7862135 141.71965746 17.28598797 141.72834523 C22.56717382 141.73511274 27.84833053 141.73604255 33.12951946 141.73277378 C33.88036972 141.73231408 34.63121998 141.73185438 35.40482327 141.73138075 C36.93002849 141.7304216 38.45523369 141.72944897 39.98043889 141.72846298 C54.29164755 141.71990264 68.60279861 141.72975329 82.91399783 141.74586408 C95.20108227 141.75926785 107.4880817 141.75693994 119.7751646 141.7431078 C134.03418869 141.72706332 148.29316227 141.72072668 162.55219412 141.72994459 C164.07187588 141.73090026 165.59155765 141.73184337 167.11123943 141.73277378 C168.23288961 141.73346802 168.23288961 141.73346802 169.37719938 141.73417629 C174.65374188 141.73676958 179.93025242 141.73238788 185.20678997 141.72533512 C191.63471028 141.71693248 198.06252066 141.71917409 204.49042833 141.73517735 C207.77182501 141.74307689 211.05299969 141.74451597 214.33440113 141.7362299 C217.88698469 141.72808356 221.4390454 141.73825254 224.99159527 141.75327015 C226.03525737 141.74657798 227.07891948 141.73988582 228.15420771 141.73299086 C229.10233096 141.7408141 230.05045421 141.74863734 231.02730846 141.75669765 C231.84777676 141.75718471 232.66824506 141.75767177 233.51357603 141.75817358 C236.14177601 142.22728618 237.0281983 143.02325107 238.62037945 145.13422108 C239.0051403 147.75226593 239.0051403 147.75226593 239.01910686 150.9617815 C239.03791409 152.78542477 239.03791409 152.78542477 239.05710125 154.64590931 C239.05592715 155.99512222 239.05446798 157.34433491 239.05275249 158.69354725 C239.06176748 160.11269963 239.07209405 161.5318442 239.08363628 162.95097828 C239.11126374 166.80607002 239.12049853 170.66101426 239.12649035 174.5161922 C239.13585915 178.54414569 239.16206126 182.57198835 239.18649578 186.59987354 C239.23020576 194.22835107 239.25872503 201.85680714 239.28181916 209.48537189 C239.30884678 218.16974127 239.35275974 226.8539994 239.39810789 235.53828943 C239.49101855 253.4035413 239.56266982 271.26882258 239.62037945 289.13422108 C243.55077463 288.39835778 247.01469892 287.27354013 250.74537945 285.82172108 C256.63787287 283.66441376 262.46440898 282.19747564 268.61256695 280.96625233 C269.4832481 280.78759632 270.35392925 280.60894032 271.25099468 280.42487049 C273.37319287 279.99008933 275.49665898 279.56150455 277.62037945 279.13422108 C277.7116562 247.80407711 277.78243173 216.47396834 277.82464077 185.14372295 C277.82964351 181.4437781 277.83482081 177.74383351 277.84010601 174.04388905 C277.84115525 173.30730568 277.84220449 172.57072232 277.84328553 171.81181824 C277.86068441 159.8896737 277.89221923 147.96760641 277.92899063 136.04550767 C277.96641448 123.80969959 277.98861835 111.57393193 277.99673343 99.33806896 C278.00221822 91.78961041 278.01953297 84.24137024 278.05204532 76.69297892 C278.07571542 70.90203203 278.07819563 65.11122467 278.07281017 59.32023907 C278.07391058 56.94667625 278.08186662 54.57310517 278.09720135 52.19959164 C278.11712209 48.95720185 278.11231025 45.71574406 278.10139751 42.47333241 C278.11304888 41.53557091 278.12470025 40.59780941 278.13670468 39.6316309 C278.07351893 32.67908996 276.45515231 27.34696365 271.8039732 22.07562733 C271.22776226 21.62058826 270.65155132 21.1655492 270.05787945 20.69672108 C269.18969585 19.98709217 269.18969585 19.98709217 268.3039732 19.26312733 C265.32048938 17.26260105 262.71993394 17.00947702 259.23757172 17.01117325 C258.33636591 17.0091822 257.4351601 17.00719115 256.50664502 17.00513977 C255.51540984 17.00805261 254.52417465 17.01096545 253.50290203 17.01396656 C251.92484768 17.01268492 251.92484768 17.01268492 250.31491345 17.01137739 C246.77259404 17.00972391 243.23032148 17.01524187 239.6880064 17.02069569 C237.1555764 17.02097761 234.62314632 17.02081972 232.09071636 17.02025318 C226.62975049 17.02002511 221.16879984 17.02287045 215.7078371 17.02849102 C207.81216832 17.03661218 199.91650531 17.03922187 192.0208328 17.04047901 C179.21115693 17.04266856 166.40148741 17.04932602 153.59181499 17.05878162 C141.14715386 17.06795825 128.70249445 17.07503786 116.25783062 17.07928944 C115.49096093 17.07955216 114.72409123 17.07981488 113.93398307 17.08008557 C110.08688867 17.08139059 106.23979426 17.0826543 102.39269984 17.08389747 C70.46858842 17.09426706 38.54448482 17.11188275 6.62037945 17.13422108 Z M-14.93095112 32.55002308 C-15.68296803 33.30507633 -15.68296803 33.30507633 -16.45017719 34.07538319 C-16.97701603 34.6004697 -17.50385487 35.12555622 -18.04665852 35.66655445 C-19.79689864 37.41237373 -21.54343272 39.16184895 -23.2897768 40.91156483 C-24.49889426 42.12000932 -25.70816019 43.32830527 -26.91756916 44.53645802 C-29.45546114 47.0728727 -31.99152775 49.61109519 -34.52634907 52.1505785 C-37.78388096 55.41380769 -41.04588035 58.67252824 -44.3092556 61.92991257 C-46.80823925 64.42529144 -49.3048469 66.92303646 -51.80073071 69.42151546 C-53.00294115 70.62439541 -54.2059015 71.82652631 -55.40960598 73.02791119 C-57.08831497 74.70409502 -58.76380889 76.38342624 -60.43845844 78.06366444 C-61.1935117 78.81568134 -61.1935117 78.81568134 -61.96381855 79.58289051 C-64.34436009 81.52286719 -64.34436009 81.52286719 -65.37962055 84.13422108 C-59.08093305 84.235863 -52.78245802 84.30578769 -46.48313618 84.35394764 C-44.34145421 84.37402996 -42.19982686 84.40130145 -40.05833149 84.43597889 C-36.9751864 84.48464506 -33.89276793 84.50722398 -30.80930805 84.52484608 C-29.8559557 84.54549122 -28.90260334 84.56613636 -27.92036152 84.58740711 C-22.23566231 84.58931441 -18.77177778 84.10788109 -14.37962055 80.13422108 C-9.68782579 74.9482967 -9.8452596 70.34197942 -9.98899555 63.70453358 C-9.99748524 62.21903507 -9.99748524 62.21903507 -10.00614643 60.7035265 C-10.02845381 57.55492333 -10.07864054 54.40747759 -10.12962055 51.25922108 C-10.1496928 49.11861257 -10.1679423 46.97798613 -10.18430805 44.83734608 C-10.22829986 39.60257928 -10.29515527 34.36848289 -10.37962055 29.13422108 C-12.4046544 29.13422108 -13.57729448 31.20474201 -14.93095112 32.55002308 Z M-23.37962055 157.13422108 C-23.37962055 164.39422108 -23.37962055 171.65422108 -23.37962055 179.13422108 C-8.19962055 179.13422108 6.98037945 179.13422108 22.62037945 179.13422108 C22.62037945 171.87422108 22.62037945 164.61422108 22.62037945 157.13422108 C7.44037945 157.13422108 -7.73962055 157.13422108 -23.37962055 157.13422108 Z M38.62037945 157.13422108 C38.62037945 164.39422108 38.62037945 171.65422108 38.62037945 179.13422108 C54.13037945 179.13422108 69.64037945 179.13422108 85.62037945 179.13422108 C85.62037945 171.87422108 85.62037945 164.61422108 85.62037945 157.13422108 C70.11037945 157.13422108 54.60037945 157.13422108 38.62037945 157.13422108 Z M101.62037945 157.13422108 C101.62037945 164.39422108 101.62037945 171.65422108 101.62037945 179.13422108 C141.88037945 179.13422108 182.14037945 179.13422108 223.62037945 179.13422108 C223.62037945 171.87422108 223.62037945 164.61422108 223.62037945 157.13422108 C183.36037945 157.13422108 143.10037945 157.13422108 101.62037945 157.13422108 Z M-23.37962055 197.13422108 C-23.37962055 204.39422108 -23.37962055 211.65422108 -23.37962055 219.13422108 C-8.19962055 219.13422108 6.98037945 219.13422108 22.62037945 219.13422108 C22.62037945 211.87422108 22.62037945 204.61422108 22.62037945 197.13422108 C7.44037945 197.13422108 -7.73962055 197.13422108 -23.37962055 197.13422108 Z M38.62037945 197.13422108 C38.62037945 204.39422108 38.62037945 211.65422108 38.62037945 219.13422108 C54.13037945 219.13422108 69.64037945 219.13422108 85.62037945 219.13422108 C85.62037945 211.87422108 85.62037945 204.61422108 85.62037945 197.13422108 C70.11037945 197.13422108 54.60037945 197.13422108 38.62037945 197.13422108 Z M101.62037945 197.13422108 C101.62037945 204.39422108 101.62037945 211.65422108 101.62037945 219.13422108 C141.88037945 219.13422108 182.14037945 219.13422108 223.62037945 219.13422108 C223.62037945 211.87422108 223.62037945 204.61422108 223.62037945 197.13422108 C183.36037945 197.13422108 143.10037945 197.13422108 101.62037945 197.13422108 Z M-23.37962055 236.13422108 C-23.37962055 243.39422108 -23.37962055 250.65422108 -23.37962055 258.13422108 C-8.19962055 258.13422108 6.98037945 258.13422108 22.62037945 258.13422108 C22.62037945 250.87422108 22.62037945 243.61422108 22.62037945 236.13422108 C7.44037945 236.13422108 -7.73962055 236.13422108 -23.37962055 236.13422108 Z M38.62037945 236.13422108 C38.62037945 243.39422108 38.62037945 250.65422108 38.62037945 258.13422108 C54.13037945 258.13422108 69.64037945 258.13422108 85.62037945 258.13422108 C85.62037945 250.87422108 85.62037945 243.61422108 85.62037945 236.13422108 C70.11037945 236.13422108 54.60037945 236.13422108 38.62037945 236.13422108 Z M101.62037945 236.13422108 C101.62037945 243.39422108 101.62037945 250.65422108 101.62037945 258.13422108 C141.88037945 258.13422108 182.14037945 258.13422108 223.62037945 258.13422108 C223.62037945 250.87422108 223.62037945 243.61422108 223.62037945 236.13422108 C183.36037945 236.13422108 143.10037945 236.13422108 101.62037945 236.13422108 Z M-23.37962055 275.13422108 C-23.37962055 282.39422108 -23.37962055 289.65422108 -23.37962055 297.13422108 C-8.19962055 297.13422108 6.98037945 297.13422108 22.62037945 297.13422108 C22.62037945 289.87422108 22.62037945 282.61422108 22.62037945 275.13422108 C7.44037945 275.13422108 -7.73962055 275.13422108 -23.37962055 275.13422108 Z M38.62037945 275.13422108 C38.62037945 282.39422108 38.62037945 289.65422108 38.62037945 297.13422108 C54.13037945 297.13422108 69.64037945 297.13422108 85.62037945 297.13422108 C85.62037945 289.87422108 85.62037945 282.61422108 85.62037945 275.13422108 C70.11037945 275.13422108 54.60037945 275.13422108 38.62037945 275.13422108 Z M101.62037945 276.13422108 C101.62037945 283.39422108 101.62037945 290.65422108 101.62037945 298.13422108 C141.88037945 298.13422108 182.14037945 298.13422108 223.62037945 298.13422108 C223.62037945 290.87422108 223.62037945 283.61422108 223.62037945 276.13422108 C183.36037945 276.13422108 143.10037945 276.13422108 101.62037945 276.13422108 Z M226.62037945 318.13422108 C225.78764507 318.87285389 224.9549107 319.6114867 224.09694195 320.37250233 C207.49536763 335.97798219 197.75578483 358.21079798 196.3977232 380.84515858 C195.81519752 406.62825183 204.50821125 429.62114882 222.13795757 448.60883045 C238.28453801 465.22342772 260.38208296 475.17757511 283.57570171 475.51483631 C310.12896324 475.46779595 332.35924995 467.15279013 351.55787945 448.63422108 C370.08296885 429.21537736 377.23896642 405.76058847 376.8899107 379.32953358 C376.30384488 360.37333584 368.63356905 342.69705512 356.62037945 328.13422108 C355.95651226 327.29633045 355.29264507 326.45843983 354.6086607 325.59515858 C341.50966342 309.95384205 322.35830365 300.24331962 302.62037945 296.13422108 C301.91010601 295.98340076 301.19983257 295.83258045 300.4680357 295.67718983 C298.5025864 295.3546325 296.61187647 295.21705631 294.62037945 295.13422108 C292.9014146 295.05687733 292.9014146 295.05687733 291.1477232 294.97797108 C267.31267003 294.26528524 244.52339644 302.12647462 226.62037945 318.13422108 Z M-23.37962055 315.13422108 C-23.37962055 322.39422108 -23.37962055 329.65422108 -23.37962055 337.13422108 C-8.19962055 337.13422108 6.98037945 337.13422108 22.62037945 337.13422108 C22.62037945 329.87422108 22.62037945 322.61422108 22.62037945 315.13422108 C7.44037945 315.13422108 -7.73962055 315.13422108 -23.37962055 315.13422108 Z M38.62037945 315.13422108 C38.62037945 322.39422108 38.62037945 329.65422108 38.62037945 337.13422108 C54.13037945 337.13422108 69.64037945 337.13422108 85.62037945 337.13422108 C85.62037945 329.87422108 85.62037945 322.61422108 85.62037945 315.13422108 C70.11037945 315.13422108 54.60037945 315.13422108 38.62037945 315.13422108 Z M102.62037945 315.13422108 C102.62037945 322.39422108 102.62037945 329.65422108 102.62037945 337.13422108 C114.06892211 337.4737183 125.51410157 337.74861055 136.96654701 337.91140366 C142.28511352 337.98955666 147.60004712 338.09543927 152.91652203 338.26581287 C158.05213589 338.42935202 163.18426841 338.51858428 168.32228565 338.55737972 C170.27753896 338.58500442 172.23261037 338.63896296 174.1863718 338.72017193 C184.32434289 339.49855097 184.32434289 339.49855097 193.27823544 335.70314884 C195.69113275 332.71947195 197.34472393 329.55004642 198.87869549 326.04756641 C200.62037945 322.13422108 200.62037945 322.13422108 205.62037945 315.13422108 C171.63037945 315.13422108 137.64037945 315.13422108 102.62037945 315.13422108 Z M-23.37962055 353.13422108 C-23.37962055 360.72422108 -23.37962055 368.31422108 -23.37962055 376.13422108 C-8.19962055 376.13422108 6.98037945 376.13422108 22.62037945 376.13422108 C22.62037945 368.54422108 22.62037945 360.95422108 22.62037945 353.13422108 C7.44037945 353.13422108 -7.73962055 353.13422108 -23.37962055 353.13422108 Z M38.62037945 353.13422108 C38.62037945 360.72422108 38.62037945 368.31422108 38.62037945 376.13422108 C54.13037945 376.13422108 69.64037945 376.13422108 85.62037945 376.13422108 C85.62037945 368.54422108 85.62037945 360.95422108 85.62037945 353.13422108 C70.11037945 353.13422108 54.60037945 353.13422108 38.62037945 353.13422108 Z M101.62037945 353.13422108 C101.62037945 360.72422108 101.62037945 368.31422108 101.62037945 376.13422108 C127.36037945 376.13422108 153.10037945 376.13422108 179.62037945 376.13422108 C182.42193997 364.71768113 182.42193997 364.71768113 183.62037945 353.13422108 C156.56037945 353.13422108 129.50037945 353.13422108 101.62037945 353.13422108 Z M-23.37962055 393.13422108 C-23.37962055 400.72422108 -23.37962055 408.31422108 -23.37962055 416.13422108 C-8.19962055 416.13422108 6.98037945 416.13422108 22.62037945 416.13422108 C22.62037945 408.54422108 22.62037945 400.95422108 22.62037945 393.13422108 C7.44037945 393.13422108 -7.73962055 393.13422108 -23.37962055 393.13422108 Z M38.62037945 393.13422108 C38.62037945 400.72422108 38.62037945 408.31422108 38.62037945 416.13422108 C54.13037945 416.13422108 69.64037945 416.13422108 85.62037945 416.13422108 C85.62037945 408.54422108 85.62037945 400.95422108 85.62037945 393.13422108 C70.11037945 393.13422108 54.60037945 393.13422108 38.62037945 393.13422108 Z M101.62037945 393.13422108 C101.62037945 400.72422108 101.62037945 408.31422108 101.62037945 416.13422108 C128.68037945 416.13422108 155.74037945 416.13422108 183.62037945 416.13422108 C182.63037945 410.68922108 182.63037945 410.68922108 181.62037945 405.13422108 C180.63037945 399.19422108 180.63037945 399.19422108 179.62037945 393.13422108 C153.88037945 393.13422108 128.14037945 393.13422108 101.62037945 393.13422108 Z " fill="#000000" transform="translate(106.37962055206299,9.865778923034668)"/>
<path d="M0 0 C1.90625 0.40625 1.90625 0.40625 4.40625 1.84375 C6.61977426 5.62518728 6.23542236 9.1270093 5.90625 13.40625 C6.94523437 13.35984375 7.98421875 13.3134375 9.0546875 13.265625 C20.40373765 12.90858236 28.95761331 14.33775508 38.0859375 21.63671875 C44.7336274 28.09895808 47.9112432 35.35988795 48.34375 44.53125 C48.2292746 49.95199665 48.2292746 49.95199665 45.90625 53.21875 C42.07131536 54.73674496 38.78399713 54.96383881 34.90625 53.40625 C32.21295173 50.60073097 31.51671745 48.33210495 31.03125 44.53125 C30.09281752 39.35079754 28.81070402 36.96364144 24.90625 33.40625 C19.43500692 30.53427616 15.06097043 29.96103707 8.9375 30.0078125 C8.0983606 30.00494232 7.25922119 30.00207214 6.39465332 29.99911499 C4.62979452 29.99708382 2.86491272 30.00254704 1.10009766 30.01513672 C-1.58612885 30.03120441 -4.27085099 30.01525618 -6.95703125 29.99609375 C-8.67969079 29.99807635 -10.4023494 30.00192038 -12.125 30.0078125 C-12.91998901 30.00173981 -13.71497803 29.99566711 -14.53405762 29.9894104 C-21.05475265 30.07079342 -25.61566891 31.53392207 -30.90625 35.53125 C-33.80217437 39.33732203 -34.90245161 42.63176096 -35.09375 47.40625 C-34.36672402 52.0245173 -32.61255345 55.27359399 -29.09375 58.34375 C-25.5297395 60.79400722 -23.10934008 61.52829879 -18.88867188 61.5480957 C-17.62089905 61.55864738 -17.62089905 61.55864738 -16.32751465 61.56941223 C-15.41505981 61.57357651 -14.50260498 61.57774078 -13.5625 61.58203125 C-11.61717692 61.6052495 -9.67186441 61.62936762 -7.7265625 61.65429688 C-4.67017752 61.68923956 -1.61417652 61.71865966 1.44238281 61.73217773 C29.28636773 61.87932074 29.28636773 61.87932074 39.90625 72.40625 C47.46598745 81.78436528 48.8834301 90.49454832 47.90625 102.40625 C45.78516362 111.8939837 39.58119651 119.14147481 31.58984375 124.4453125 C23.72398381 128.93487525 14.67229046 128.54891612 5.90625 128.40625 C5.99326172 129.31117188 5.99326172 129.31117188 6.08203125 130.234375 C6.44988757 136.75068704 6.44988757 136.75068704 3.78125 139.96875 C0.37577264 141.67148868 -1.34236252 142.10963515 -5.09375 141.40625 C-7.96875 139.40625 -7.96875 139.40625 -10.09375 136.40625 C-10.50372788 133.59867993 -10.33612846 131.26631586 -10.09375 128.40625 C-10.77179688 128.42945313 -11.44984375 128.45265625 -12.1484375 128.4765625 C-24.04610297 128.70726515 -33.84874006 127.04491791 -42.9140625 118.73828125 C-47.52625237 113.67414313 -51.40199266 107.32382338 -52.09375 100.40625 C-52.18849609 99.46265625 -52.18849609 99.46265625 -52.28515625 98.5 C-52.49759333 94.82689438 -52.26842496 92.75559993 -50.59375 89.40625 C-47.56110892 86.98013714 -45.86748433 86.84721432 -42.09375 86.83984375 C-39.18291671 87.66420083 -37.96836696 89.06198378 -36.09375 91.40625 C-35.22265625 93.9921875 -35.22265625 93.9921875 -34.65625 96.78125 C-33.38274062 101.96526372 -31.95753557 104.73094178 -28.09375 108.40625 C-25.20727555 110.14183794 -23.06352818 110.66278161 -19.71166992 110.69677734 C-18.8536528 110.70953705 -17.99563568 110.72229675 -17.11161804 110.73544312 C-15.73185539 110.73878159 -15.73185539 110.73878159 -14.32421875 110.7421875 C-13.36985428 110.7488443 -12.41548981 110.7555011 -11.4322052 110.76235962 C-9.41405156 110.77247733 -7.39586452 110.77717691 -5.37768555 110.77685547 C-2.30265571 110.78121962 0.77092799 110.81752377 3.84570312 110.85546875 C5.80989095 110.86133902 7.77408556 110.86530701 9.73828125 110.8671875 C10.65205032 110.88155853 11.5658194 110.89592957 12.50727844 110.91073608 C18.49428126 110.86826842 21.99087541 109.87399573 26.90625 106.40625 C29.74520714 102.95538731 30.79162524 99.22295139 31.40625 94.84375 C30.56387845 89.05244558 28.4879124 85.6583994 23.90625 82.03125 C20.0095086 79.92051508 16.95463214 79.2849309 12.5559082 79.2644043 C11.70434647 79.25736984 10.85278473 79.25033539 9.97541809 79.24308777 C9.06185043 79.23892349 8.14828278 79.23475922 7.20703125 79.23046875 C5.25584869 79.20726219 3.30467678 79.18314452 1.35351562 79.15820312 C-1.70962585 79.1231804 -4.77237655 79.09378901 -7.83569336 79.08032227 C-10.8010962 79.06474893 -13.76536859 79.02447461 -16.73046875 78.98046875 C-17.63391525 78.98237717 -18.53736176 78.98428558 -19.46818542 78.98625183 C-28.89749917 78.8069665 -37.35478208 75.06009412 -44.09375 68.40625 C-50.52237962 59.78247856 -53.20814449 51.13048792 -52.09375 40.40625 C-50.27161126 31.63797162 -45.83418755 25.22420154 -39.09375 19.40625 C-31.86748051 14.80386753 -25.83858559 13.23937111 -17.34375 13.34375 C-16.64636719 13.34826172 -15.94898438 13.35277344 -15.23046875 13.35742188 C-13.51819197 13.3691498 -11.80595967 13.38708347 -10.09375 13.40625 C-10.17625 12.189375 -10.25875 10.9725 -10.34375 9.71875 C-10.32142247 6.57615065 -10.05089369 5.32053739 -8.59375 2.40625 C-5.55272704 -0.02656837 -3.81180553 -0.2844631 0 0 Z " fill="#000000" transform="translate(395.09375,324.59375)"/>
<path d="M0 0 C3.1359157 1.77984405 3.84102736 2.52308207 5 6 C5.17143087 8.28761847 5.26643463 10.58142969 5.3125 12.875 C5.34988281 14.08929688 5.38726562 15.30359375 5.42578125 16.5546875 C4.92698088 20.59085196 3.85830579 22.16786917 1 25 C-2.08105531 26.18502127 -3.5254367 26.14347263 -6.6875 25.1875 C-9.22548741 23.88420917 -10.68219813 22.94126031 -11.61328125 20.18359375 C-12.60470821 14.58553646 -13.02404651 7.98967673 -10 3 C-6.88987138 -0.22120464 -4.38482744 -0.54810343 0 0 Z " fill="#000000" transform="translate(330,383)"/>
<path d="M0 0 C3.4922483 2.72076488 4.85641253 4.17950015 5.62890625 8.59375 C5.60699219 9.8828125 5.58507812 11.171875 5.5625 12.5 C5.56443359 14.43359375 5.56443359 14.43359375 5.56640625 16.40625 C4.9264271 20.46680735 3.89104006 22.13567935 1 25 C-2.47454134 26.46296477 -3.72080658 26.11275119 -7.25 24.6875 C-10 23 -10 23 -11 21 C-11.20353204 18.19125784 -11.32362682 15.43651399 -11.375 12.625 C-11.41238281 11.85671875 -11.44976562 11.0884375 -11.48828125 10.296875 C-11.55237923 6.18036056 -11.57032457 4.61133453 -8.6640625 1.49609375 C-5.37194762 -0.3527039 -3.71758636 -0.69704744 0 0 Z " fill="#000000" transform="translate(463,383)"/>
</svg>
